<svg width="111" height="37" viewBox="0 0 111 37" fill="none" xmlns="http://www.w3.org/2000/svg">
<path d="M48.666 10.5332C48.666 11.3626 48.4473 12.1465 48.0098 12.8848C47.5723 13.6139 46.9115 14.2474 46.0273 14.7852C46.4557 14.931 46.8203 15.1406 47.1211 15.4141C47.4219 15.6875 47.668 15.9974 47.8594 16.3438C48.0508 16.681 48.1875 17.0456 48.2695 17.4375C48.3607 17.8294 48.4062 18.2168 48.4062 18.5996V21.334C48.4062 21.6895 48.4928 22.0996 48.666 22.5645C48.8392 23.0293 49.0716 23.5078 49.3633 24H45.8359C45.6992 23.7812 45.5853 23.5534 45.4941 23.3164C45.4121 23.0794 45.3483 22.8516 45.3027 22.6328C45.2572 22.4049 45.2253 22.1908 45.207 21.9902C45.1979 21.7806 45.1934 21.6029 45.1934 21.457V18.5449C45.1934 18.2624 45.1432 17.9844 45.043 17.7109C44.9518 17.4284 44.8014 17.1777 44.5918 16.959C44.3822 16.7311 44.1042 16.5488 43.7578 16.4121C43.4115 16.2663 42.9922 16.1934 42.5 16.1934H37.6328V24H34.4062V4.92773H42.5C43.4844 4.92773 44.3594 5.0918 45.125 5.41992C45.8906 5.74805 46.5332 6.17643 47.0527 6.70508C47.5814 7.23372 47.9824 7.83529 48.2559 8.50977C48.5293 9.17513 48.666 9.84961 48.666 10.5332ZM37.6328 13.4727H42.5C42.8919 13.4727 43.2611 13.4043 43.6074 13.2676C43.9629 13.1217 44.2728 12.9258 44.5371 12.6797C44.8105 12.4245 45.0247 12.1191 45.1797 11.7637C45.3346 11.4082 45.4121 11.0163 45.4121 10.5879C45.4121 10.1686 45.3392 9.78125 45.1934 9.42578C45.0475 9.0612 44.8424 8.7513 44.5781 8.49609C44.3229 8.23177 44.0176 8.02669 43.6621 7.88086C43.3066 7.72591 42.9193 7.64844 42.5 7.64844H37.6328V13.4727ZM65.0586 23.6309C64.7943 23.7949 64.5573 23.918 64.3477 24C64.1471 24.0911 63.9694 24.1549 63.8145 24.1914C63.6686 24.237 63.5365 24.2598 63.418 24.2598C63.3086 24.2689 63.2129 24.2734 63.1309 24.2734C62.7936 24.2734 62.4883 24.2142 62.2148 24.0957C61.9505 23.9863 61.7135 23.8314 61.5039 23.6309C61.3034 23.4303 61.1257 23.2025 60.9707 22.9473C60.8249 22.6921 60.7064 22.4186 60.6152 22.127C60.2051 22.5553 59.8132 22.9108 59.4395 23.1934C59.0749 23.4668 58.7148 23.6855 58.3594 23.8496C58.0039 24.0046 57.6484 24.1139 57.293 24.1777C56.9375 24.2415 56.5684 24.2734 56.1855 24.2734C55.5658 24.2734 54.9824 24.1777 54.4355 23.9863C53.8978 23.7858 53.4284 23.5033 53.0273 23.1387C52.6263 22.7741 52.3073 22.3411 52.0703 21.8398C51.8424 21.3294 51.7285 20.7598 51.7285 20.1309C51.7285 19.5931 51.847 19.1283 52.084 18.7363C52.3301 18.3444 52.6491 18.0026 53.041 17.7109C53.4421 17.4193 53.8932 17.1686 54.3945 16.959C54.9049 16.7493 55.4199 16.5625 55.9395 16.3984C56.4681 16.2253 56.9831 16.0658 57.4844 15.9199C57.9948 15.765 58.446 15.6055 58.8379 15.4414C59.2389 15.2682 59.5579 15.0768 59.7949 14.8672C60.041 14.6484 60.1641 14.3887 60.1641 14.0879C60.1641 13.7962 60.0866 13.5501 59.9316 13.3496C59.7858 13.1491 59.5944 12.9896 59.3574 12.8711C59.1296 12.7435 58.8743 12.6523 58.5918 12.5977C58.3092 12.543 58.0312 12.5156 57.7578 12.5156C57.4753 12.5156 57.1973 12.5566 56.9238 12.6387C56.6595 12.7116 56.4134 12.8301 56.1855 12.9941C55.9668 13.1582 55.7799 13.3724 55.625 13.6367C55.4701 13.8919 55.3698 14.2018 55.3242 14.5664H52.043C52.0885 13.7552 52.2845 13.0534 52.6309 12.4609C52.9772 11.8594 53.4147 11.3626 53.9434 10.9707C54.472 10.5788 55.069 10.2871 55.7344 10.0957C56.3997 9.9043 57.0742 9.80859 57.7578 9.80859C58.4961 9.80859 59.2025 9.89062 59.877 10.0547C60.5605 10.2188 61.1621 10.4785 61.6816 10.834C62.2012 11.1895 62.6113 11.6452 62.9121 12.2012C63.222 12.748 63.377 13.4043 63.377 14.1699V20.9512C63.377 21.1152 63.4362 21.2793 63.5547 21.4434C63.6823 21.5983 63.86 21.6758 64.0879 21.6758C64.1152 21.6758 64.2109 21.6621 64.375 21.6348C64.5482 21.6074 64.776 21.5163 65.0586 21.3613V23.6309ZM60.1641 17.3418C59.9544 17.4603 59.681 17.5697 59.3438 17.6699C59.0065 17.7702 58.6419 17.8704 58.25 17.9707C57.8581 18.071 57.4616 18.1849 57.0605 18.3125C56.6686 18.431 56.3132 18.5723 55.9941 18.7363C55.6751 18.8913 55.4108 19.0781 55.2012 19.2969C55.0007 19.5065 54.9004 19.7572 54.9004 20.0488C54.9004 20.3314 54.946 20.5729 55.0371 20.7734C55.1283 20.974 55.2467 21.1426 55.3926 21.2793C55.5475 21.4069 55.7207 21.5026 55.9121 21.5664C56.1035 21.6211 56.2995 21.6484 56.5 21.6484C57.1289 21.6484 57.7669 21.4342 58.4141 21.0059C59.0612 20.5775 59.6445 19.9349 60.1641 19.0781V17.3418ZM78.0469 24H74.834V22.4551C74.6243 22.7923 74.3828 23.0794 74.1094 23.3164C73.8451 23.5443 73.5671 23.7311 73.2754 23.877C72.9928 24.0137 72.7057 24.1139 72.4141 24.1777C72.1224 24.2415 71.8444 24.2734 71.5801 24.2734C70.6868 24.2734 69.8802 24.0866 69.1602 23.7129C68.4492 23.3392 67.8431 22.8288 67.3418 22.1816C66.8496 21.5345 66.4714 20.7734 66.207 19.8984C65.9427 19.0234 65.8105 18.0846 65.8105 17.082C65.8105 16.0885 65.929 15.1497 66.166 14.2656C66.403 13.3815 66.7539 12.6113 67.2188 11.9551C67.6836 11.2897 68.2578 10.7656 68.9414 10.3828C69.6341 10 70.4316 9.80859 71.334 9.80859C71.6439 9.80859 71.9629 9.85417 72.291 9.94531C72.6191 10.0273 72.9382 10.1549 73.248 10.3281C73.5579 10.5013 73.8451 10.7109 74.1094 10.957C74.3828 11.2031 74.6243 11.4811 74.834 11.791V4.92773H78.0469V24ZM74.834 16.8906C74.8158 16.2891 74.7383 15.724 74.6016 15.1953C74.474 14.6667 74.2871 14.2064 74.041 13.8145C73.804 13.4134 73.5078 13.099 73.1523 12.8711C72.806 12.6341 72.4141 12.5156 71.9766 12.5156C71.5117 12.5156 71.097 12.6387 70.7324 12.8848C70.3678 13.1217 70.0625 13.4499 69.8164 13.8691C69.5703 14.2793 69.3835 14.7624 69.2559 15.3184C69.1283 15.8743 69.0645 16.4622 69.0645 17.082C69.0645 17.7109 69.1283 18.3034 69.2559 18.8594C69.3835 19.4154 69.5703 19.8984 69.8164 20.3086C70.0625 20.7188 70.3678 21.0469 70.7324 21.293C71.097 21.5299 71.5117 21.6484 71.9766 21.6484C72.4323 21.6484 72.8379 21.5299 73.1934 21.293C73.5488 21.0469 73.8451 20.7188 74.082 20.3086C74.3281 19.8984 74.515 19.4154 74.6426 18.8594C74.7702 18.3034 74.834 17.7109 74.834 17.082V16.8906ZM83.8301 17.9023C83.8757 18.4036 83.9896 18.8822 84.1719 19.3379C84.3542 19.7936 84.5866 20.1947 84.8691 20.541C85.1608 20.8783 85.4935 21.1471 85.8672 21.3477C86.2409 21.5482 86.6465 21.6484 87.084 21.6484C87.8678 21.6484 88.5195 21.4297 89.0391 20.9922C89.5677 20.5547 89.987 19.9076 90.2969 19.0508H93.2637C93.0905 19.8711 92.7988 20.6048 92.3887 21.252C91.9876 21.8991 91.5091 22.446 90.9531 22.8926C90.3971 23.3392 89.7819 23.681 89.1074 23.918C88.4421 24.1549 87.7585 24.2734 87.0566 24.2734C86.054 24.2734 85.1471 24.0729 84.3359 23.6719C83.5339 23.2708 82.8503 22.7331 82.2852 22.0586C81.7201 21.3841 81.2826 20.6003 80.9727 19.707C80.6719 18.8047 80.5215 17.8568 80.5215 16.8633C80.5215 15.9336 80.6719 15.0449 80.9727 14.1973C81.2826 13.3405 81.7201 12.5885 82.2852 11.9414C82.8503 11.2852 83.5339 10.7656 84.3359 10.3828C85.1471 10 86.054 9.80859 87.0566 9.80859C88.0228 9.80859 88.8978 9.98633 89.6816 10.3418C90.4655 10.6882 91.1309 11.1667 91.6777 11.7773C92.2337 12.388 92.6576 13.1081 92.9492 13.9375C93.25 14.7669 93.4004 15.6647 93.4004 16.6309V17.9023H83.8301ZM90.1328 15.4551C90.0872 15.0176 89.9779 14.6211 89.8047 14.2656C89.6315 13.901 89.4082 13.5911 89.1348 13.3359C88.8613 13.0716 88.5378 12.8711 88.1641 12.7344C87.7904 12.5885 87.3802 12.5156 86.9336 12.5156C86.5326 12.5156 86.1543 12.5977 85.7988 12.7617C85.4525 12.9167 85.1426 13.1263 84.8691 13.3906C84.5957 13.6549 84.3678 13.9694 84.1855 14.334C84.0124 14.6895 83.8939 15.0632 83.8301 15.4551H90.1328ZM95.9434 10.082H99.1562V11.7363C99.7487 11.0527 100.378 10.5605 101.043 10.2598C101.717 9.95898 102.396 9.80859 103.08 9.80859C103.791 9.80859 104.424 9.91341 104.98 10.123C105.546 10.3327 106.024 10.6335 106.416 11.0254C106.817 11.4082 107.122 11.873 107.332 12.4199C107.542 12.9577 107.646 13.5592 107.646 14.2246V24H104.393V14.7305C104.393 14.3841 104.342 14.0742 104.242 13.8008C104.142 13.5273 104.005 13.2949 103.832 13.1035C103.668 12.9121 103.467 12.7663 103.23 12.666C102.993 12.5658 102.738 12.5156 102.465 12.5156C102.036 12.5156 101.622 12.6068 101.221 12.7891C100.829 12.9714 100.478 13.2129 100.168 13.5137C99.8581 13.8145 99.612 14.1608 99.4297 14.5527C99.2474 14.9355 99.1562 15.332 99.1562 15.7422V24H95.9434V10.082Z" fill="#00B5E8"/>
<path d="M36.925 34.09C36.433 34.09 36.016 33.991 35.674 33.793C35.332 33.589 35.068 33.301 34.882 32.929C34.702 32.557 34.612 32.119 34.612 31.615C34.612 31.231 34.657 30.844 34.747 30.454C34.837 30.058 34.972 29.683 35.152 29.329C35.338 28.975 35.569 28.66 35.845 28.384C36.121 28.102 36.445 27.883 36.817 27.727C37.189 27.565 37.609 27.484 38.077 27.484C38.413 27.484 38.713 27.517 38.977 27.583C39.247 27.643 39.502 27.739 39.742 27.871L39.355 28.663C39.181 28.567 38.992 28.486 38.788 28.42C38.584 28.354 38.347 28.321 38.077 28.321C37.741 28.321 37.438 28.384 37.168 28.51C36.904 28.636 36.676 28.81 36.484 29.032C36.292 29.248 36.13 29.497 35.998 29.779C35.872 30.055 35.776 30.349 35.71 30.661C35.65 30.973 35.62 31.279 35.62 31.579C35.62 32.107 35.749 32.518 36.007 32.812C36.265 33.106 36.631 33.253 37.105 33.253C37.351 33.253 37.594 33.226 37.834 33.172C38.074 33.118 38.311 33.049 38.545 32.965V33.802C38.329 33.88 38.092 33.946 37.834 34C37.576 34.06 37.273 34.09 36.925 34.09ZM41.0898 34.09C40.8438 34.09 40.6188 34.03 40.4148 33.91C40.2168 33.79 40.0578 33.604 39.9377 33.352C39.8238 33.1 39.7668 32.785 39.7668 32.407C39.7668 32.059 39.8028 31.72 39.8748 31.39C39.9468 31.06 40.0488 30.754 40.1808 30.472C40.3188 30.19 40.4838 29.944 40.6758 29.734C40.8678 29.524 41.0838 29.359 41.3238 29.239C41.5698 29.119 41.8308 29.059 42.1068 29.059C42.3168 29.059 42.4998 29.095 42.6558 29.167C42.8118 29.239 42.9438 29.338 43.0518 29.464C43.1658 29.584 43.2558 29.716 43.3218 29.86H43.3668L43.6368 29.149H44.3658L43.3308 34H42.6018L42.7008 33.181H42.6648C42.5328 33.349 42.3858 33.502 42.2238 33.64C42.0678 33.778 41.8968 33.889 41.7108 33.973C41.5248 34.051 41.3178 34.09 41.0898 34.09ZM41.4318 33.307C41.6418 33.307 41.8428 33.229 42.0348 33.073C42.2328 32.917 42.4098 32.71 42.5658 32.452C42.7218 32.188 42.8388 31.897 42.9168 31.579C42.9588 31.423 42.9858 31.276 42.9978 31.138C43.0098 31 43.0158 30.865 43.0158 30.733C43.0158 30.475 42.9438 30.262 42.7998 30.094C42.6618 29.926 42.4728 29.842 42.2328 29.842C42.0588 29.842 41.8968 29.89 41.7468 29.986C41.5968 30.076 41.4588 30.202 41.3328 30.364C41.2068 30.526 41.0988 30.715 41.0088 30.931C40.9248 31.147 40.8558 31.381 40.8018 31.633C40.7538 31.879 40.7298 32.134 40.7298 32.398C40.7298 32.704 40.7898 32.932 40.9098 33.082C41.0358 33.232 41.2098 33.307 41.4318 33.307ZM46.2303 34.09C45.8883 34.09 45.6033 34.012 45.3753 33.856C45.1533 33.694 45.0423 33.412 45.0423 33.01C45.0423 32.926 45.0483 32.833 45.0603 32.731C45.0783 32.629 45.0963 32.524 45.1143 32.416L45.6543 29.869H44.9343L45.0153 29.428L45.8433 29.077L46.4103 28.069H46.9863L46.7523 29.149H47.9763L47.8233 29.869H46.6083L46.0683 32.425C46.0503 32.491 46.0353 32.566 46.0233 32.65C46.0113 32.728 46.0053 32.803 46.0053 32.875C46.0053 33.007 46.0413 33.115 46.1133 33.199C46.1853 33.277 46.2993 33.316 46.4553 33.316C46.5633 33.316 46.6683 33.307 46.7703 33.289C46.8783 33.265 46.9923 33.232 47.1123 33.19V33.91C47.0223 33.952 46.8933 33.991 46.7253 34.027C46.5633 34.069 46.3983 34.09 46.2303 34.09ZM49.9515 34.09C49.5795 34.09 49.2585 34.018 48.9885 33.874C48.7185 33.73 48.5115 33.52 48.3675 33.244C48.2235 32.968 48.1515 32.635 48.1515 32.245C48.1515 31.855 48.2055 31.471 48.3135 31.093C48.4275 30.715 48.5925 30.373 48.8085 30.067C49.0245 29.761 49.2885 29.518 49.6005 29.338C49.9125 29.152 50.2665 29.059 50.6625 29.059C51.1425 29.059 51.5055 29.167 51.7515 29.383C51.9975 29.593 52.1205 29.881 52.1205 30.247C52.1205 30.487 52.0635 30.712 51.9495 30.922C51.8415 31.132 51.6705 31.315 51.4365 31.471C51.2085 31.621 50.9175 31.738 50.5635 31.822C50.2095 31.906 49.7865 31.948 49.2945 31.948H49.1235C49.1175 32.002 49.1115 32.053 49.1055 32.101C49.1055 32.149 49.1055 32.194 49.1055 32.236C49.1055 32.572 49.1925 32.839 49.3665 33.037C49.5405 33.235 49.7955 33.334 50.1315 33.334C50.3715 33.334 50.5935 33.301 50.7975 33.235C51.0015 33.169 51.2325 33.076 51.4905 32.956V33.73C51.2505 33.838 51.0135 33.925 50.7795 33.991C50.5515 34.057 50.2755 34.09 49.9515 34.09ZM49.3485 31.237C49.7025 31.237 50.0175 31.204 50.2935 31.138C50.5755 31.072 50.7945 30.97 50.9505 30.832C51.1125 30.694 51.1935 30.517 51.1935 30.301C51.1935 30.151 51.1455 30.031 51.0495 29.941C50.9535 29.851 50.8065 29.806 50.6085 29.806C50.4225 29.806 50.2395 29.863 50.0595 29.977C49.8795 30.091 49.7175 30.256 49.5735 30.472C49.4355 30.682 49.3275 30.937 49.2495 31.237H49.3485ZM52.5941 34L53.6291 29.149H54.3761L54.2861 30.049H54.3311C54.4571 29.869 54.5921 29.707 54.7361 29.563C54.8801 29.413 55.0391 29.293 55.2131 29.203C55.3931 29.107 55.5941 29.059 55.8161 29.059C55.8941 29.059 55.9781 29.065 56.0681 29.077C56.1581 29.083 56.2391 29.095 56.3111 29.113L56.1041 29.995C56.0321 29.977 55.9571 29.962 55.8791 29.95C55.8071 29.938 55.7291 29.932 55.6451 29.932C55.4411 29.932 55.2491 29.983 55.0691 30.085C54.8951 30.187 54.7361 30.325 54.5921 30.499C54.4541 30.673 54.3341 30.871 54.2321 31.093C54.1361 31.315 54.0611 31.549 54.0071 31.795L53.5391 34H52.5941ZM56.2416 34L57.2766 29.149H58.2216L57.1866 34H56.2416ZM57.9786 28.402C57.8346 28.402 57.7146 28.366 57.6186 28.294C57.5286 28.216 57.4836 28.099 57.4836 27.943C57.4836 27.823 57.5076 27.718 57.5556 27.628C57.6036 27.532 57.6726 27.457 57.7626 27.403C57.8526 27.343 57.9606 27.313 58.0866 27.313C58.2366 27.313 58.3536 27.352 58.4376 27.43C58.5276 27.502 58.5726 27.61 58.5726 27.754C58.5726 27.952 58.5156 28.111 58.4016 28.231C58.2876 28.345 58.1466 28.402 57.9786 28.402ZM58.6404 34L59.6844 29.131H60.4764L60.3774 30.031H60.3954C60.5094 29.863 60.6414 29.704 60.7914 29.554C60.9474 29.404 61.1244 29.281 61.3224 29.185C61.5264 29.089 61.7514 29.041 61.9974 29.041C62.2614 29.041 62.4864 29.092 62.6724 29.194C62.8644 29.296 63.0084 29.443 63.1044 29.635C63.2004 29.821 63.2484 30.046 63.2484 30.31C63.2484 30.442 63.2364 30.58 63.2124 30.724C63.1944 30.862 63.1734 30.991 63.1494 31.111L62.5284 34H61.5384L62.1774 31.012C62.2014 30.886 62.2194 30.778 62.2314 30.688C62.2494 30.598 62.2584 30.511 62.2584 30.427C62.2584 30.241 62.2104 30.1 62.1144 30.004C62.0184 29.908 61.8744 29.86 61.6824 29.86C61.4844 29.86 61.2804 29.935 61.0704 30.085C60.8604 30.235 60.6684 30.463 60.4944 30.769C60.3204 31.069 60.1794 31.456 60.0714 31.93L59.6304 34H58.6404ZM65.3988 36.16C65.0868 36.16 64.8078 36.13 64.5618 36.07C64.3158 36.016 64.0968 35.944 63.9048 35.854V34.999C64.0308 35.065 64.1718 35.125 64.3278 35.179C64.4838 35.239 64.6518 35.287 64.8318 35.323C65.0118 35.359 65.1888 35.377 65.3628 35.377C65.7168 35.377 66.0048 35.293 66.2268 35.125C66.4548 34.957 66.6138 34.681 66.7038 34.297L66.7758 34.009C66.7998 33.925 66.8238 33.832 66.8478 33.73C66.8718 33.628 66.8988 33.529 66.9288 33.433C66.9588 33.331 66.9828 33.247 67.0008 33.181H66.9648C66.8328 33.343 66.6918 33.493 66.5418 33.631C66.3978 33.769 66.2358 33.88 66.0558 33.964C65.8758 34.048 65.6748 34.09 65.4528 34.09C65.2008 34.09 64.9758 34.03 64.7778 33.91C64.5798 33.784 64.4238 33.595 64.3098 33.343C64.1958 33.091 64.1388 32.779 64.1388 32.407C64.1388 32.065 64.1718 31.732 64.2378 31.408C64.3098 31.078 64.4118 30.772 64.5438 30.49C64.6818 30.208 64.8438 29.962 65.0298 29.752C65.2218 29.536 65.4378 29.368 65.6778 29.248C65.9178 29.122 66.1818 29.059 66.4698 29.059C66.6858 29.059 66.8718 29.095 67.0278 29.167C67.1838 29.239 67.3158 29.335 67.4238 29.455C67.5318 29.575 67.6248 29.71 67.7028 29.86H67.7388L68.0178 29.149H68.7468L67.6578 34.234C67.5558 34.702 67.4028 35.077 67.1988 35.359C66.9948 35.641 66.7428 35.845 66.4428 35.971C66.1428 36.097 65.7948 36.16 65.3988 36.16ZM65.8308 33.307C65.9628 33.307 66.0918 33.274 66.2178 33.208C66.3438 33.142 66.4638 33.049 66.5778 32.929C66.6978 32.803 66.8058 32.659 66.9018 32.497C67.0038 32.335 67.0908 32.161 67.1628 31.975C67.2348 31.783 67.2888 31.585 67.3248 31.381C67.3668 31.171 67.3878 30.964 67.3878 30.76C67.3878 30.484 67.3248 30.262 67.1988 30.094C67.0728 29.926 66.8688 29.842 66.5868 29.842C66.4128 29.842 66.2508 29.89 66.1008 29.986C65.9508 30.082 65.8128 30.214 65.6868 30.382C65.5668 30.55 65.4618 30.742 65.3718 30.958C65.2878 31.174 65.2218 31.405 65.1738 31.651C65.1258 31.897 65.1018 32.146 65.1018 32.398C65.1018 32.704 65.1648 32.932 65.2908 33.082C65.4168 33.232 65.5968 33.307 65.8308 33.307ZM72.9928 34.09C72.6748 34.09 72.3928 34.063 72.1468 34.009C71.9008 33.955 71.6758 33.874 71.4718 33.766V32.857C71.6098 32.929 71.7568 32.998 71.9128 33.064C72.0688 33.124 72.2368 33.172 72.4168 33.208C72.5968 33.244 72.7918 33.262 73.0018 33.262C73.1878 33.262 73.3618 33.244 73.5238 33.208C73.6918 33.166 73.8358 33.103 73.9558 33.019C74.0818 32.929 74.1808 32.818 74.2528 32.686C74.3308 32.554 74.3698 32.398 74.3698 32.218C74.3698 32.056 74.3338 31.915 74.2618 31.795C74.1958 31.669 74.0908 31.549 73.9468 31.435C73.8028 31.321 73.6168 31.195 73.3888 31.057C73.1728 30.925 72.9778 30.784 72.8038 30.634C72.6298 30.478 72.4918 30.301 72.3898 30.103C72.2878 29.899 72.2368 29.656 72.2368 29.374C72.2368 29.08 72.2908 28.819 72.3988 28.591C72.5128 28.357 72.6658 28.156 72.8578 27.988C73.0558 27.82 73.2838 27.694 73.5418 27.61C73.7998 27.526 74.0788 27.484 74.3788 27.484C74.7148 27.484 75.0148 27.52 75.2788 27.592C75.5428 27.658 75.7948 27.754 76.0348 27.88L75.6748 28.663C75.5008 28.573 75.2998 28.495 75.0718 28.429C74.8438 28.357 74.6128 28.321 74.3788 28.321C74.2168 28.321 74.0668 28.342 73.9288 28.384C73.7908 28.426 73.6708 28.492 73.5688 28.582C73.4668 28.666 73.3888 28.771 73.3348 28.897C73.2808 29.017 73.2538 29.152 73.2538 29.302C73.2538 29.476 73.2838 29.623 73.3438 29.743C73.4098 29.863 73.5088 29.971 73.6408 30.067C73.7728 30.163 73.9348 30.271 74.1268 30.391C74.3848 30.547 74.6038 30.706 74.7838 30.868C74.9698 31.024 75.1108 31.204 75.2068 31.408C75.3088 31.606 75.3598 31.846 75.3598 32.128C75.3598 32.452 75.3028 32.737 75.1888 32.983C75.0748 33.229 74.9098 33.433 74.6938 33.595C74.4838 33.757 74.2318 33.88 73.9378 33.964C73.6498 34.048 73.3348 34.09 72.9928 34.09ZM78.1293 34.09C77.7573 34.09 77.4363 34.018 77.1663 33.874C76.8963 33.73 76.6893 33.52 76.5453 33.244C76.4013 32.968 76.3293 32.635 76.3293 32.245C76.3293 31.855 76.3833 31.471 76.4913 31.093C76.6053 30.715 76.7703 30.373 76.9863 30.067C77.2023 29.761 77.4663 29.518 77.7783 29.338C78.0903 29.152 78.4443 29.059 78.8403 29.059C79.3203 29.059 79.6833 29.167 79.9293 29.383C80.1753 29.593 80.2983 29.881 80.2983 30.247C80.2983 30.487 80.2413 30.712 80.1273 30.922C80.0193 31.132 79.8483 31.315 79.6143 31.471C79.3863 31.621 79.0953 31.738 78.7413 31.822C78.3873 31.906 77.9643 31.948 77.4723 31.948H77.3013C77.2953 32.002 77.2893 32.053 77.2833 32.101C77.2833 32.149 77.2833 32.194 77.2833 32.236C77.2833 32.572 77.3703 32.839 77.5443 33.037C77.7183 33.235 77.9733 33.334 78.3093 33.334C78.5493 33.334 78.7713 33.301 78.9753 33.235C79.1793 33.169 79.4103 33.076 79.6683 32.956V33.73C79.4283 33.838 79.1913 33.925 78.9573 33.991C78.7293 34.057 78.4533 34.09 78.1293 34.09ZM77.5263 31.237C77.8803 31.237 78.1953 31.204 78.4713 31.138C78.7533 31.072 78.9723 30.97 79.1283 30.832C79.2903 30.694 79.3713 30.517 79.3713 30.301C79.3713 30.151 79.3233 30.031 79.2273 29.941C79.1313 29.851 78.9843 29.806 78.7863 29.806C78.6003 29.806 78.4173 29.863 78.2373 29.977C78.0573 30.091 77.8953 30.256 77.7513 30.472C77.6133 30.682 77.5053 30.937 77.4273 31.237H77.5263ZM80.7719 34L81.8069 29.149H82.5539L82.4639 30.049H82.5089C82.6349 29.869 82.7699 29.707 82.9139 29.563C83.0579 29.413 83.2169 29.293 83.3909 29.203C83.5709 29.107 83.7719 29.059 83.9939 29.059C84.0719 29.059 84.1559 29.065 84.2459 29.077C84.3359 29.083 84.4169 29.095 84.4889 29.113L84.2819 29.995C84.2099 29.977 84.1349 29.962 84.0569 29.95C83.9849 29.938 83.9069 29.932 83.8229 29.932C83.6189 29.932 83.4269 29.983 83.2469 30.085C83.0729 30.187 82.9139 30.325 82.7699 30.499C82.6319 30.673 82.5119 30.871 82.4099 31.093C82.3139 31.315 82.2389 31.549 82.1849 31.795L81.7169 34H80.7719ZM85.2023 34L84.6353 29.149H85.5713L85.8233 31.804C85.8353 31.93 85.8473 32.086 85.8593 32.272C85.8713 32.458 85.8803 32.635 85.8863 32.803C85.8923 32.965 85.8953 33.091 85.8953 33.181H85.9313C85.9913 33.049 86.0573 32.899 86.1293 32.731C86.2073 32.557 86.2853 32.386 86.3633 32.218C86.4473 32.044 86.5163 31.903 86.5703 31.795L87.9563 29.149H88.9733L86.3543 34H85.2023ZM88.7436 34L89.7786 29.149H90.7236L89.6886 34H88.7436ZM90.4806 28.402C90.3366 28.402 90.2166 28.366 90.1206 28.294C90.0306 28.216 89.9856 28.099 89.9856 27.943C89.9856 27.823 90.0096 27.718 90.0576 27.628C90.1056 27.532 90.1746 27.457 90.2646 27.403C90.3546 27.343 90.4626 27.313 90.5886 27.313C90.7386 27.313 90.8556 27.352 90.9396 27.43C91.0296 27.502 91.0746 27.61 91.0746 27.754C91.0746 27.952 91.0176 28.111 90.9036 28.231C90.7896 28.345 90.6486 28.402 90.4806 28.402ZM93.1673 34.09C92.8193 34.09 92.5073 34.027 92.2313 33.901C91.9613 33.769 91.7483 33.571 91.5923 33.307C91.4423 33.037 91.3673 32.698 91.3673 32.29C91.3673 31.936 91.4033 31.603 91.4753 31.291C91.5533 30.973 91.6643 30.679 91.8083 30.409C91.9523 30.133 92.1263 29.896 92.3303 29.698C92.5343 29.494 92.7683 29.338 93.0323 29.23C93.3023 29.116 93.5933 29.059 93.9053 29.059C94.1453 29.059 94.3733 29.083 94.5893 29.131C94.8053 29.173 95.0003 29.236 95.1743 29.32L94.9043 30.076C94.7723 30.022 94.6253 29.971 94.4633 29.923C94.3013 29.869 94.1243 29.842 93.9323 29.842C93.7403 29.842 93.5603 29.884 93.3923 29.968C93.2303 30.052 93.0833 30.172 92.9513 30.328C92.8193 30.478 92.7053 30.655 92.6093 30.859C92.5193 31.057 92.4503 31.276 92.4023 31.516C92.3543 31.75 92.3303 31.993 92.3303 32.245C92.3303 32.473 92.3693 32.668 92.4473 32.83C92.5253 32.986 92.6363 33.106 92.7803 33.19C92.9243 33.268 93.0983 33.307 93.3023 33.307C93.5183 33.307 93.7193 33.277 93.9053 33.217C94.0973 33.157 94.2893 33.082 94.4813 32.992V33.784C94.3013 33.874 94.1033 33.946 93.8873 34C93.6713 34.06 93.4313 34.09 93.1673 34.09ZM97.3246 34.09C96.9526 34.09 96.6316 34.018 96.3616 33.874C96.0916 33.73 95.8846 33.52 95.7406 33.244C95.5966 32.968 95.5246 32.635 95.5246 32.245C95.5246 31.855 95.5786 31.471 95.6866 31.093C95.8006 30.715 95.9656 30.373 96.1816 30.067C96.3976 29.761 96.6616 29.518 96.9736 29.338C97.2856 29.152 97.6396 29.059 98.0356 29.059C98.5156 29.059 98.8786 29.167 99.1246 29.383C99.3706 29.593 99.4936 29.881 99.4936 30.247C99.4936 30.487 99.4366 30.712 99.3226 30.922C99.2146 31.132 99.0436 31.315 98.8096 31.471C98.5816 31.621 98.2906 31.738 97.9366 31.822C97.5826 31.906 97.1596 31.948 96.6676 31.948H96.4966C96.4906 32.002 96.4846 32.053 96.4786 32.101C96.4786 32.149 96.4786 32.194 96.4786 32.236C96.4786 32.572 96.5656 32.839 96.7396 33.037C96.9136 33.235 97.1686 33.334 97.5046 33.334C97.7446 33.334 97.9666 33.301 98.1706 33.235C98.3746 33.169 98.6056 33.076 98.8636 32.956V33.73C98.6236 33.838 98.3866 33.925 98.1526 33.991C97.9246 34.057 97.6486 34.09 97.3246 34.09ZM96.7216 31.237C97.0756 31.237 97.3906 31.204 97.6666 31.138C97.9486 31.072 98.1676 30.97 98.3236 30.832C98.4856 30.694 98.5666 30.517 98.5666 30.301C98.5666 30.151 98.5186 30.031 98.4226 29.941C98.3266 29.851 98.1796 29.806 97.9816 29.806C97.7956 29.806 97.6126 29.863 97.4326 29.977C97.2526 30.091 97.0906 30.256 96.9466 30.472C96.8086 30.682 96.7006 30.937 96.6226 31.237H96.7216Z" fill="#017DC0"/>
<path d="M33.2587 31.2826L32.8972 30.7549L25.2248 19.5732H20.7494L30.0903 33.1901C30.1159 33.2281 30.1446 33.2662 30.1747 33.3016C30.5391 33.7545 31.1024 34 31.676 34C32.0254 34 32.3778 33.9097 32.6925 33.7207C33.5673 33.1928 33.8203 32.1023 33.2587 31.2826Z" fill="#017DC0"/>
<path d="M9.18408 2.7174C8.81207 2.17422 8.78502 1.48432 9.11638 0.918679C9.44612 0.352889 10.0787 0.000274658 10.7683 0.000274658C11.3919 0.000274658 11.9731 0.296143 12.3124 0.786221L14.8297 4.42175L21.6921 14.4242H17.2166L9.18408 2.7174Z" fill="#017DC0"/>
<path d="M24.3738 31.2826C24.8292 31.9474 24.7654 32.8323 24.166 33.44C23.8033 33.8079 23.2797 33.9997 22.745 33.9997C22.1447 33.9997 21.5851 33.7147 21.2586 33.2427L19.3427 30.4728L11.8644 19.5732H16.3399L24.3738 31.2826Z" fill="#017DC0"/>
<path d="M20.7477 33.9998H10.0152C4.49316 33.9998 0.000997543 29.7916 0.000997543 24.6181C0.000997543 19.789 3.87708 15.7458 8.88863 15.2364H12.593L13.3626 15.235L13.3641 15.2364H15.0402L17.4812 18.7633H10.015C9.89162 18.7633 9.7695 18.766 9.64755 18.7732C6.37071 18.9524 3.76565 21.5058 3.76565 24.618C3.76565 27.8458 6.56813 30.4727 10.015 30.4727H18.3049L20.7477 33.9998Z" fill="#00B5E8"/>
<path d="M33.5568 9.38183C33.5568 14.2108 29.6791 18.2528 24.6676 18.762L20.1936 18.7634H18.5175L16.0765 15.2365H17.7736L17.7707 15.2323L22.2431 15.228L22.2491 15.2365H23.5426C26.9881 15.2365 29.792 12.6097 29.792 9.38183C29.792 6.154 26.9881 3.52716 23.5426 3.52716H15.2452L12.8042 0.000274662H23.5426C29.0648 0.000122936 33.5568 4.20856 33.5568 9.38183Z" fill="#00B5E8"/>
<path d="M7.60584 6.84226L5.37863 3.59744L5.13764 3.24483H5.13619L3.4661 0.809766C3.10624 0.284943 2.50085 0 1.88186 0C1.53252 0 1.1801 0.0902778 0.865425 0.279329C-0.00492279 0.804152 -0.259517 1.88338 0.288701 2.70164L0.66217 3.24483L0.903161 3.59744L3.13037 6.84226L8.33173 14.4237H12.8072L7.60584 6.84226Z" fill="#017DC0"/>
</svg>
